
<svg width="600" height="400" viewBox="0 0 600 400" fill="none" xmlns="http://www.w3.org/2000/svg">
  <rect width="600" height="400" fill="#FEFEFE"/>
  
  <!-- Header -->
  <rect x="0" y="0" width="600" height="60" fill="#7C3AED" opacity="0.1"/>
  <rect x="40" y="20" width="150" height="20" rx="4" fill="#7C3AED" opacity="0.8"/>
  <text x="50" y="35" font-family="Arial, sans-serif" font-size="12" font-weight="bold" fill="white">Church Finance</text>
  
  <!-- Dashboard Grid -->
  <rect x="40" y="80" width="120" height="80" rx="8" fill="#EDE9FE"/>
  <rect x="180" y="80" width="120" height="80" rx="8" fill="#DDD6FE"/>
  <rect x="320" y="80" width="120" height="80" rx="8" fill="#C4B5FD"/>
  <rect x="460" y="80" width="120" height="80" rx="8" fill="#A78BFA"/>
  
  <!-- Charts Area -->
  <rect x="40" y="180" width="260" height="150" rx="8" fill="#F3F4F6"/>
  <rect x="320" y="180" width="260" height="150" rx="8" fill="#F3F4F6"/>
  
  <!-- Chart Lines -->
  <polyline points="60,250 100,230 140,240 180,220 220,200 260,190" stroke="#7C3AED" stroke-width="3" fill="none"/>
  <polyline points="340,280 380,260 420,270 460,250 500,230 540,220" stroke="#059669" stroke-width="3" fill="none"/>
  
  <text x="300" y="365" text-anchor="middle" font-family="Arial, sans-serif" font-size="12" fill="#6B7280">Financial Dashboard</text>
</svg>