
<svg width="600" height="400" viewBox="0 0 600 400" fill="none" xmlns="http://www.w3.org/2000/svg">
  <rect width="600" height="400" fill="#F0F9FF"/>
  
  <!-- Header -->
  <rect x="0" y="0" width="600" height="80" fill="#0EA5E9" opacity="0.1"/>
  <rect x="40" y="25" width="180" height="20" rx="4" fill="#0EA5E9" opacity="0.8"/>
  <text x="50" y="40" font-family="Arial, sans-serif" font-size="12" font-weight="bold" fill="white">Elder Assistant AI</text>
  
  <!-- Voice Interface -->
  <circle cx="300" cy="180" r="60" fill="#0EA5E9" opacity="0.2"/>
  <circle cx="300" cy="180" r="40" fill="#0EA5E9" opacity="0.4"/>
  <circle cx="300" cy="180" r="20" fill="#0EA5E9" opacity="0.8"/>
  
  <!-- Microphone Icon -->
  <rect x="290" y="165" width="20" height="30" rx="10" fill="#0EA5E9"/>
  <rect x="285" y="200" width="30" height="8" rx="4" fill="#0EA5E9"/>
  <rect x="297" y="208" width="6" height="15" fill="#0EA5E9"/>
  
  <!-- Status Cards -->
  <rect x="40" y="270" width="150" height="60" rx="8" fill="#DBEAFE"/>
  <rect x="220" y="270" width="150" height="60" rx="8" fill="#DCFCE7"/>
  <rect x="400" y="270" width="150" height="60" rx="8" fill="#FEF3C7"/>
  
  <!-- Status Icons -->
  <circle cx="70" cy="290" r="8" fill="#3B82F6"/>
  <circle cx="250" cy="290" r="8" fill="#22C55E"/>
  <circle cx="430" cy="290" r="8" fill="#F59E0B"/>
  
  <text x="300" y="375" text-anchor="middle" font-family="Arial, sans-serif" font-size="12" fill="#6B7280">Dashboard Analytics</text>
</svg>