
<svg width="600" height="400" viewBox="0 0 600 400" fill="none" xmlns="http://www.w3.org/2000/svg">
  <rect width="600" height="400" fill="#F8FAFC"/>
  
  <!-- Browser Chrome -->
  <rect x="0" y="0" width="600" height="40" fill="#E2E8F0"/>
  <circle cx="20" cy="20" r="6" fill="#EF4444"/>
  <circle cx="40" cy="20" r="6" fill="#F59E0B"/>
  <circle cx="60" cy="20" r="6" fill="#10B981"/>
  
  <!-- URL Bar -->
  <rect x="100" y="12" width="400" height="16" rx="8" fill="white"/>
  <text x="110" y="23" font-family="Arial, sans-serif" font-size="10" fill="#6B7280">gatanguenterprise.com</text>
  
  <!-- Main Content -->
  <rect x="0" y="40" width="600" height="360" fill="white"/>
  
  <!-- Header with Logo Area -->
  <rect x="0" y="40" width="600" height="100" fill="#10B981" opacity="0.1"/>
  <rect x="40" y="60" width="120" height="20" rx="4" fill="#10B981" opacity="0.8"/>
  <text x="50" y="75" font-family="Arial, sans-serif" font-size="12" font-weight="bold" fill="white">GATANGU</text>
  
  <!-- Navigation -->
  <rect x="40" y="160" width="60" height="8" rx="4" fill="#64748B"/>
  <rect x="120" y="160" width="80" height="8" rx="4" fill="#64748B"/>
  <rect x="220" y="160" width="70" height="8" rx="4" fill="#10B981"/>
  <rect x="310" y="160" width="60" height="8" rx="4" fill="#64748B"/>
  
  <!-- Product Grid -->
  <rect x="40" y="190" width="120" height="120" rx="8" fill="#F1F5F9"/>
  <rect x="180" y="190" width="120" height="120" rx="8" fill="#F1F5F9"/>
  <rect x="320" y="190" width="120" height="120" rx="8" fill="#F1F5F9"/>
  <rect x="460" y="190" width="120" height="120" rx="8" fill="#F1F5F9"/>
  
  <!-- Product Images (represented as colored rectangles) -->
  <rect x="50" y="200" width="100" height="60" rx="4" fill="#22C55E"/>
  <rect x="190" y="200" width="100" height="60" rx="4" fill="#059669"/>
  <rect x="330" y="200" width="100" height="60" rx="4" fill="#16A34A"/>
  <rect x="470" y="200" width="100" height="60" rx="4" fill="#15803D"/>
  
  <!-- Product Names -->
  <rect x="50" y="275" width="80" height="6" rx="3" fill="#374151"/>
  <rect x="190" y="275" width="90" height="6" rx="3" fill="#374151"/>
  <rect x="330" y="275" width="70" height="6" rx="3" fill="#374151"/>
  <rect x="470" y="275" width="85" height="6" rx="3" fill="#374151"/>
  
  <!-- Prices -->
  <rect x="50" y="290" width="40" height="8" rx="4" fill="#10B981" opacity="0.8"/>
  <rect x="190" y="290" width="45" height="8" rx="4" fill="#10B981" opacity="0.8"/>
  <rect x="330" y="290" width="35" height="8" rx="4" fill="#10B981" opacity="0.8"/>
  <rect x="470" y="290" width="50" height="8" rx="4" fill="#10B981" opacity="0.8"/>
  
  <!-- Footer -->
  <rect x="0" y="340" width="600" height="60" fill="#F8FAFC"/>
  <text x="300" y="375" text-anchor="middle" font-family="Arial, sans-serif" font-size="12" fill="#6B7280">E-commerce Platform Homepage</text>
</svg>