
<svg width="600" height="400" viewBox="0 0 600 400" fill="none" xmlns="http://www.w3.org/2000/svg">
  <rect width="600" height="400" fill="#F9FAFB"/>
  
  <!-- Browser Chrome -->
  <rect x="0" y="0" width="600" height="40" fill="#E5E7EB"/>
  <circle cx="20" cy="20" r="6" fill="#EF4444"/>
  <circle cx="40" cy="20" r="6" fill="#F59E0B"/>
  <circle cx="60" cy="20" r="6" fill="#10B981"/>
  
  <!-- URL Bar -->
  <rect x="100" y="12" width="400" height="16" rx="8" fill="white"/>
  <text x="110" y="23" font-family="Arial, sans-serif" font-size="10" fill="#6B7280">bandabets.com</text>
  
  <!-- Main Content Area -->
  <rect x="0" y="40" width="600" height="360" fill="white"/>
  
  <!-- Header -->
  <rect x="0" y="40" width="600" height="80" fill="#10B981" opacity="0.1"/>
  <rect x="40" y="60" width="200" height="16" rx="8" fill="#10B981" opacity="0.3"/>
  <rect x="40" y="85" width="120" height="12" rx="6" fill="#10B981" opacity="0.2"/>
  
  <!-- Navigation -->
  <rect x="40" y="140" width="80" height="8" rx="4" fill="#D1D5DB"/>
  <rect x="140" y="140" width="80" height="8" rx="4" fill="#D1D5DB"/>
  <rect x="240" y="140" width="80" height="8" rx="4" fill="#10B981" opacity="0.6"/>
  
  <!-- Content Cards -->
  <rect x="40" y="170" width="160" height="100" rx="8" fill="#F3F4F6"/>
  <rect x="220" y="170" width="160" height="100" rx="8" fill="#F3F4F6"/>
  <rect x="400" y="170" width="160" height="100" rx="8" fill="#10B981" opacity="0.1"/>
  
  <!-- Card Content -->
  <rect x="50" y="180" width="100" height="8" rx="4" fill="#9CA3AF"/>
  <rect x="50" y="195" width="80" height="6" rx="3" fill="#D1D5DB"/>
  <rect x="50" y="210" width="120" height="6" rx="3" fill="#D1D5DB"/>
  
  <!-- Footer -->
  <rect x="40" y="340" width="520" height="40" rx="8" fill="#10B981" opacity="0.05"/>
  <text x="300" y="365" text-anchor="middle" font-family="Arial, sans-serif" font-size="12" fill="#6B7280">Mobile Responsive View</text>
</svg>