
<svg width="600" height="400" viewBox="0 0 600 400" fill="none" xmlns="http://www.w3.org/2000/svg">
  <rect width="600" height="400" fill="#F8FAFC"/>
  
  <!-- Browser Chrome -->
  <rect x="0" y="0" width="600" height="40" fill="#E2E8F0"/>
  <circle cx="20" cy="20" r="6" fill="#EF4444"/>
  <circle cx="40" cy="20" r="6" fill="#F59E0B"/>
  <circle cx="60" cy="20" r="6" fill="#10B981"/>
  
  <!-- URL Bar -->
  <rect x="100" y="12" width="400" height="16" rx="8" fill="white"/>
  <text x="110" y="23" font-family="Arial, sans-serif" font-size="10" fill="#6B7280">ackamune-fund-manager.vercel.app/reports</text>
  
  <!-- Main Content -->
  <rect x="0" y="40" width="600" height="360" fill="white"/>
  
  <!-- Header -->
  <rect x="0" y="40" width="600" height="60" fill="#7C3AED" opacity="0.1"/>
  <text x="50" y="70" font-family="Arial, sans-serif" font-size="16" font-weight="bold" fill="#374151">Financial Reports</text>
  <text x="50" y="90" font-family="Arial, sans-serif" font-size="12" fill="#6B7280">Detailed analysis and reporting dashboard</text>
  
  <!-- Chart Section -->
  <rect x="40" y="120" width="340" height="200" rx="8" fill="#F1F5F9"/>
  <text x="50" y="140" font-family="Arial, sans-serif" font-size="14" font-weight="bold" fill="#374151">Income vs Expenses</text>
  
  <!-- Mock Chart -->
  <rect x="60" y="160" width="40" height="120" rx="4" fill="#10B981"/>
  <rect x="120" y="180" width="40" height="100" rx="4" fill="#EF4444"/>
  <rect x="180" y="170" width="40" height="110" rx="4" fill="#10B981"/>
  <rect x="240" y="190" width="40" height="90" rx="4" fill="#EF4444"/>
  <rect x="300" y="150" width="40" height="130" rx="4" fill="#10B981"/>
  
  <!-- Chart Labels -->
  <text x="80" y="300" text-anchor="middle" font-family="Arial, sans-serif" font-size="8" fill="#6B7280">Jan</text>
  <text x="140" y="300" text-anchor="middle" font-family="Arial, sans-serif" font-size="8" fill="#6B7280">Feb</text>
  <text x="200" y="300" text-anchor="middle" font-family="Arial, sans-serif" font-size="8" fill="#6B7280">Mar</text>
  <text x="260" y="300" text-anchor="middle" font-family="Arial, sans-serif" font-size="8" fill="#6B7280">Apr</text>
  <text x="320" y="300" text-anchor="middle" font-family="Arial, sans-serif" font-size="8" fill="#6B7280">May</text>
  
  <!-- Summary Cards -->
  <rect x="400" y="120" width="160" height="60" rx="8" fill="#F1F5F9"/>
  <text x="410" y="140" font-family="Arial, sans-serif" font-size="10" font-weight="bold" fill="#374151">Monthly Summary</text>
  <text x="410" y="155" font-family="Arial, sans-serif" font-size="12" font-weight="bold" fill="#10B981">Total Income: KSh 850K</text>
  <text x="410" y="170" font-family="Arial, sans-serif" font-size="12" font-weight="bold" fill="#EF4444">Total Expenses: KSh 340K</text>
  
  <rect x="400" y="200" width="160" height="60" rx="8" fill="#F1F5F9"/>
  <text x="410" y="220" font-family="Arial, sans-serif" font-size="10" font-weight="bold" fill="#374151">Net Profit</text>
  <text x="410" y="240" font-family="Arial, sans-serif" font-size="16" font-weight="bold" fill="#10B981">KSh 510,000</text>
  <text x="410" y="250" font-family="Arial, sans-serif" font-size="8" fill="#6B7280">+15% from last month</text>
  
  <!-- Export Options -->
  <rect x="40" y="340" width="520" height="40" rx="8" fill="#FAFAFA"/>
  <text x="50" y="365" font-family="Arial, sans-serif" font-size="12" font-weight="bold" fill="#374151">Export Options: PDF | Excel | CSV</text>
</svg>