
<svg width="600" height="400" viewBox="0 0 600 400" fill="none" xmlns="http://www.w3.org/2000/svg">
  <rect width="600" height="400" fill="#F8FAFC"/>
  
  <!-- Browser Chrome -->
  <rect x="0" y="0" width="600" height="40" fill="#E2E8F0"/>
  <circle cx="20" cy="20" r="6" fill="#EF4444"/>
  <circle cx="40" cy="20" r="6" fill="#F59E0B"/>
  <circle cx="60" cy="20" r="6" fill="#10B981"/>
  
  <!-- URL Bar -->
  <rect x="100" y="12" width="400" height="16" rx="8" fill="white"/>
  <text x="110" y="23" font-family="Arial, sans-serif" font-size="10" fill="#6B7280">ackamune-fund-manager.vercel.app</text>
  
  <!-- Main Content -->
  <rect x="0" y="40" width="600" height="360" fill="white"/>
  
  <!-- Header with Logo Area -->
  <rect x="0" y="40" width="600" height="80" fill="#3B82F6" opacity="0.1"/>
  <rect x="40" y="60" width="180" height="20" rx="4" fill="#3B82F6" opacity="0.8"/>
  <text x="50" y="75" font-family="Arial, sans-serif" font-size="12" font-weight="bold" fill="white">ACKAMUNE FUND MANAGER</text>
  
  <!-- Navigation -->
  <rect x="40" y="140" width="80" height="8" rx="4" fill="#64748B"/>
  <rect x="140" y="140" width="70" height="8" rx="4" fill="#3B82F6"/>
  <rect x="230" y="140" width="60" height="8" rx="4" fill="#64748B"/>
  <rect x="310" y="140" width="80" height="8" rx="4" fill="#64748B"/>
  <rect x="410" y="140" width="70" height="8" rx="4" fill="#64748B"/>
  
  <!-- Dashboard Cards -->
  <rect x="40" y="170" width="160" height="80" rx="8" fill="#F1F5F9"/>
  <rect x="220" y="170" width="160" height="80" rx="8" fill="#F1F5F9"/>
  <rect x="400" y="170" width="160" height="80" rx="8" fill="#F1F5F9"/>
  
  <!-- Card Icons -->
  <circle cx="80" cy="195" r="12" fill="#3B82F6"/>
  <circle cx="300" cy="195" r="12" fill="#10B981"/>
  <circle cx="480" cy="195" r="12" fill="#F59E0B"/>
  
  <!-- Card Titles -->
  <text x="110" y="185" font-family="Arial, sans-serif" font-size="10" font-weight="bold" fill="#374151">Total Funds</text>
  <text x="330" y="185" font-family="Arial, sans-serif" font-size="10" font-weight="bold" fill="#374151">Income</text>
  <text x="510" y="185" font-family="Arial, sans-serif" font-size="10" font-weight="bold" fill="#374151">Expenses</text>
  
  <!-- Card Values -->
  <text x="110" y="205" font-family="Arial, sans-serif" font-size="14" font-weight="bold" fill="#1F2937">KSh 2,450,000</text>
  <text x="330" y="205" font-family="Arial, sans-serif" font-size="14" font-weight="bold" fill="#1F2937">KSh 350,000</text>
  <text x="510" y="205" font-family="Arial, sans-serif" font-size="14" font-weight="bold" fill="#1F2937">KSh 125,000</text>
  
  <!-- Card Descriptions -->
  <rect x="110" y="215" width="80" height="3" rx="1" fill="#9CA3AF"/>
  <rect x="330" y="215" width="70" height="3" rx="1" fill="#9CA3AF"/>
  <rect x="510" y="215" width="85" height="3" rx="1" fill="#9CA3AF"/>
  
  <!-- Recent Transactions Section -->
  <rect x="40" y="270" width="520" height="100" rx="8" fill="#FAFAFA"/>
  <text x="50" y="290" font-family="Arial, sans-serif" font-size="12" font-weight="bold" fill="#374151">Recent Transactions</text>
  
  <!-- Transaction Items -->
  <rect x="50" y="305" width="500" height="20" rx="4" fill="white"/>
  <circle cx="65" cy="315" r="6" fill="#10B981"/>
  <text x="80" y="320" font-family="Arial, sans-serif" font-size="9" fill="#374151">Tithe Collection - Sunday Service</text>
  <text x="480" y="320" font-family="Arial, sans-serif" font-size="9" font-weight="bold" fill="#10B981">+KSh 45,000</text>
  
  <rect x="50" y="330" width="500" height="20" rx="4" fill="white"/>
  <circle cx="65" cy="340" r="6" fill="#EF4444"/>
  <text x="80" y="345" font-family="Arial, sans-serif" font-size="9" fill="#374151">Utility Bills - Electricity</text>
  <text x="480" y="345" font-family="Arial, sans-serif" font-size="9" font-weight="bold" fill="#EF4444">-KSh 8,500</text>
  
  <rect x="50" y="355" width="500" height="20" rx="4" fill="white"/>
  <circle cx="65" cy="365" r="6" fill="#10B981"/>
  <text x="80" y="370" font-family="Arial, sans-serif" font-size="9" fill="#374151">Offering - Midweek Service</text>
  <text x="480" y="370" font-family="Arial, sans-serif" font-size="9" font-weight="bold" fill="#10B981">+KSh 12,300</text>
</svg>