<svg width="600" height="400" viewBox="0 0 600 400" fill="none" xmlns="http://www.w3.org/2000/svg">
  <rect width="600" height="400" fill="#F8FAFC"/>
  
  <!-- Browser Chrome -->
  <rect x="0" y="0" width="600" height="40" fill="#E2E8F0"/>
  <circle cx="20" cy="20" r="6" fill="#EF4444"/>
  <circle cx="40" cy="20" r="6" fill="#F59E0B"/>
  <circle cx="60" cy="20" r="6" fill="#10B981"/>
  
  <!-- URL Bar -->
  <rect x="100" y="12" width="400" height="16" rx="8" fill="white"/>
  <text x="110" y="23" font-family="Arial, sans-serif" font-size="10" fill="#6B7280">joygardens.vercel.app/academics</text>
  
  <!-- Main Content -->
  <rect x="0" y="40" width="600" height="360" fill="white"/>
  
  <!-- Header -->
  <rect x="0" y="40" width="600" height="80" fill="#16A34A" opacity="0.05"/>
  <text x="300" y="70" text-anchor="middle" font-family="Arial, sans-serif" font-size="16" font-weight="bold" fill="#1F2937">Academic Programs</text>
  <text x="300" y="90" text-anchor="middle" font-family="Arial, sans-serif" font-size="12" fill="#6B7280">Building tomorrow's leaders through quality education</text>
  
  <!-- Academic Sections -->
  <rect x="40" y="140" width="160" height="200" rx="8" fill="#F0FDF4"/>
  <rect x="220" y="140" width="160" height="200" rx="8" fill="#EFF6FF"/>
  <rect x="400" y="140" width="160" height="200" rx="8" fill="#FEF3C7"/>
  
  <!-- Section Headers -->
  <text x="120" y="165" text-anchor="middle" font-family="Arial, sans-serif" font-size="12" font-weight="bold" fill="#16A34A">Primary</text>
  <text x="300" y="165" text-anchor="middle" font-family="Arial, sans-serif" font-size="12" font-weight="bold" fill="#0EA5E9">Secondary</text>
  <text x="480" y="165" text-anchor="middle" font-family="Arial, sans-serif" font-size="12" font-weight="bold" fill="#F59E0B">Activities</text>
  
  <!-- Content Lines -->
  <rect x="50" y="185" width="140" height="4" rx="2" fill="#16A34A" opacity="0.3"/>
  <rect x="50" y="195" width="120" height="4" rx="2" fill="#16A34A" opacity="0.3"/>
  <rect x="50" y="205" width="130" height="4" rx="2" fill="#16A34A" opacity="0.3"/>
  
  <rect x="230" y="185" width="140" height="4" rx="2" fill="#0EA5E9" opacity="0.3"/>
  <rect x="230" y="195" width="110" height="4" rx="2" fill="#0EA5E9" opacity="0.3"/>
  <rect x="230" y="205" width="135" height="4" rx="2" fill="#0EA5E9" opacity="0.3"/>
  
  <rect x="410" y="185" width="140" height="4" rx="2" fill="#F59E0B" opacity="0.3"/>
  <rect x="410" y="195" width="125" height="4" rx="2" fill="#F59E0B" opacity="0.3"/>
  <rect x="410" y="205" width="140" height="4" rx="2" fill="#F59E0B" opacity="0.3"/>
  
  <!-- Subject Icons -->
  <circle cx="80" cy="240" r="15" fill="#16A34A" opacity="0.2"/>
  <circle cx="160" cy="240" r="15" fill="#16A34A" opacity="0.2"/>
  <circle cx="260" cy="240" r="15" fill="#0EA5E9" opacity="0.2"/>
  <circle cx="340" cy="240" r="15" fill="#0EA5E9" opacity="0.2"/>
  <circle cx="440" cy="240" r="15" fill="#F59E0B" opacity="0.2"/>
  <circle cx="520" cy="240" r="15" fill="#F59E0B" opacity="0.2"/>
  
  <!-- Subject Labels -->
  <text x="80" y="270" text-anchor="middle" font-family="Arial, sans-serif" font-size="9" fill="#374151">Math</text>
  <text x="160" y="270" text-anchor="middle" font-family="Arial, sans-serif" font-size="9" fill="#374151">Science</text>
  <text x="260" y="270" text-anchor="middle" font-family="Arial, sans-serif" font-size="9" fill="#374151">Languages</text>
  <text x="340" y="270" text-anchor="middle" font-family="Arial, sans-serif" font-size="9" fill="#374151">Arts</text>
  <text x="440" y="270" text-anchor="middle" font-family="Arial, sans-serif" font-size="9" fill="#374151">Sports</text>
  <text x="520" y="270" text-anchor="middle" font-family="Arial, sans-serif" font-size="9" fill="#374151">Clubs</text>
  
  <!-- Bottom Statistics -->
  <rect x="40" y="360" width="520" height="30" rx="4" fill="#F8FAFC"/>
  <text x="300" y="380" text-anchor="middle" font-family="Arial, sans-serif" font-size="11" fill="#6B7280">500+ Students • 50+ Teachers • Excellence Since 2010</text>
</svg>