<svg width="600" height="400" viewBox="0 0 600 400" fill="none" xmlns="http://www.w3.org/2000/svg">
  <rect width="600" height="400" fill="#F8FAFC"/>
  
  <!-- Browser Chrome -->
  <rect x="0" y="0" width="600" height="40" fill="#E2E8F0"/>
  <circle cx="20" cy="20" r="6" fill="#EF4444"/>
  <circle cx="40" cy="20" r="6" fill="#F59E0B"/>
  <circle cx="60" cy="20" r="6" fill="#10B981"/>
  
  <!-- URL Bar -->
  <rect x="100" y="12" width="400" height="16" rx="8" fill="white"/>
  <text x="110" y="23" font-family="Arial, sans-serif" font-size="10" fill="#6B7280">khisa-foundation.org/programs</text>
  
  <!-- Main Content -->
  <rect x="0" y="40" width="600" height="360" fill="white"/>
  
  <!-- Header -->
  <rect x="0" y="40" width="600" height="80" fill="#EC4899" opacity="0.05"/>
  <text x="300" y="70" text-anchor="middle" font-family="Arial, sans-serif" font-size="16" font-weight="bold" fill="#1F2937">Our Programs</text>
  <text x="300" y="90" text-anchor="middle" font-family="Arial, sans-serif" font-size="12" fill="#6B7280">Making a difference in California's Central Valley</text>
  
  <!-- Program Details Section -->
  <rect x="40" y="140" width="520" height="200" rx="8" fill="#FAFAFA"/>
  
  <!-- Program 1: Pad Drives -->
  <rect x="60" y="160" width="480" height="50" rx="4" fill="white"/>
  <circle cx="85" cy="185" r="15" fill="#EC4899"/>
  <text x="110" y="180" font-family="Arial, sans-serif" font-size="12" font-weight="bold" fill="#374151">Menstrual Hygiene Support</text>
  <text x="110" y="195" font-family="Arial, sans-serif" font-size="10" fill="#6B7280">Providing essential hygiene products to women in need</text>
  
  <!-- Program 2: Mentorship -->
  <rect x="60" y="220" width="480" height="50" rx="4" fill="white"/>
  <circle cx="85" cy="245" r="15" fill="#8B5CF6"/>
  <text x="110" y="240" font-family="Arial, sans-serif" font-size="12" font-weight="bold" fill="#374151">Community Mentorship</text>
  <text x="110" y="255" font-family="Arial, sans-serif" font-size="10" fill="#6B7280">Connecting youth with experienced mentors for guidance</text>
  
  <!-- Program 3: Digital Literacy -->
  <rect x="60" y="280" width="480" height="50" rx="4" fill="white"/>
  <circle cx="85" cy="305" r="15" fill="#06B6D4"/>
  <text x="110" y="300" font-family="Arial, sans-serif" font-size="12" font-weight="bold" fill="#374151">Digital Skills Training</text>
  <text x="110" y="315" font-family="Arial, sans-serif" font-size="10" fill="#6B7280">Teaching essential technology skills for modern careers</text>
  
  <!-- Call to Action -->
  <rect x="250" y="360" width="100" height="25" rx="12" fill="#EC4899"/>
  <text x="300" y="375" text-anchor="middle" font-family="Arial, sans-serif" font-size="10" font-weight="bold" fill="white">Get Involved</text>
</svg>